PathFileType	4	(X/Y/Z)	C:/Users/opensim2020/Desktop/walking_exp_matlab/subject01_walking10_straight_01.trc	
DataRate	CameraRate	NumFrames	NumMarkers	Units	OrigDataRate	OrigDataStartFrame	OrigNumFrames	
100.00	100.00	5	43	mm	100.00	965	349	
Frame#	Time	LFHD			RFHD			LBHD			RBHD			C7			T10			CLAV			STRN			RBAK			LSHO			LUPA			LELB			LFRM			LWRA			LWRB			LFIN			RSHO			RUPA			RELB			RFRM			RWRA			RWRB			RFIN			LASI			RASI			LPSI			RPSI			LTHI			LKNE			LTIB			LANK			LHEE			LTOE			RTHI			RKNE			RTIB			RANK			RHEE			RTOE			*39			*40			*41			*42			
		X1	Y1	Z1	X2	Y2	Z2	X3	Y3	Z3	X4	Y4	Z4	X5	Y5	Z5	X6	Y6	Z6	X7	Y7	Z7	X8	Y8	Z8	X9	Y9	Z9	X10	Y10	Z10	X11	Y11	Z11	X12	Y12	Z12	X13	Y13	Z13	X14	Y14	Z14	X15	Y15	Z15	X16	Y16	Z16	X17	Y17	Z17	X18	Y18	Z18	X19	Y19	Z19	X20	Y20	Z20	X21	Y21	Z21	X22	Y22	Z22	X23	Y23	Z23	X24	Y24	Z24	X25	Y25	Z25	X26	Y26	Z26	X27	Y27	Z27	X28	Y28	Z28	X29	Y29	Z29	X30	Y30	Z30	X31	Y31	Z31	X32	Y32	Z32	X33	Y33	Z33	X34	Y34	Z34	X35	Y35	Z35	X36	Y36	Z36	X37	Y37	Z37	X38	Y38	Z38	X39	Y39	Z39	X40	Y40	Z40	X41	Y41	Z41	X42	Y42	Z42	X43	Y43	Z43	

44	0.430	1380.14124	-859.27118	1678.19080	1491.35645	-835.58057	1688.26929	1399.43958	-956.39142	1601.59998	1517.67822	-933.80011	1610.62476	1428.41541	-957.85602	1433.59888	1431.44629	-994.89215	1140.79700	1429.34277	-814.99048	1366.60034	1422.70911	-773.84741	1209.20496	1500.86462	-1014.84167	1239.48438	1269.06665	-869.52155	1399.83875	1180.26257	-885.48431	1215.71729	1178.54675	-892.22821	1065.81934	1163.25732	-851.88342	957.87042	1198.98169	-786.79297	839.49683	1160.98621	-832.31213	836.80725	1162.97742	-785.56427	766.27045	1580.43091	-878.67041	1390.82544	1675.51624	-934.95355	1187.84229	1675.87695	-930.55164	1063.36499	1706.29761	-900.17847	947.06897	1690.42065	-815.36505	832.72083	1727.56128	-861.02881	832.77844	1727.44897	-822.97833	755.85895	1323.68896	-822.29773	931.41028	1541.56726	-817.72614	936.93463	1381.22412	-1008.71680	944.61725	1527.04419	-1003.09564	947.78870	1278.97644	-839.71198	599.70721	1299.70532	-839.16504	465.84155	1295.75146	-882.42529	279.96576	1357.88916	-895.40247	63.88817	1411.20886	-938.78296	34.91256	1351.30774	-746.89490	30.56817	1621.30188	-823.43030	609.01044	1610.89258	-808.36298	451.39307	1610.42822	-953.61548	350.31439	1561.50366	-1100.14282	207.84285	1502.67969	-1153.36108	210.03877	1580.12341	-1043.44897	75.36648	1471.22278	-859.24744	1716.74268	-3101.88696	1973.20276	1023.45251	-3140.62817	2012.54626	1022.08698			 
45	0.440	1379.03210	-853.53986	1678.37317	1490.22485	-829.95551	1688.50281	1398.17114	-950.72601	1601.89929	1516.48462	-928.20648	1610.90833	1426.96130	-952.20105	1433.72815	1430.25464	-989.62036	1141.19543	1428.18176	-809.46069	1366.77222	1421.57922	-768.47479	1209.35596	1499.35022	-1009.57343	1239.84546	1267.82935	-863.77960	1400.08655	1178.98840	-878.82922	1216.02856	1177.07068	-884.25311	1066.17505	1161.84998	-842.78967	958.51245	1197.65149	-776.55939	840.85461	1159.67822	-821.99365	837.68182	1161.50708	-774.45276	767.74634	1579.15857	-873.49390	1391.01855	1673.82788	-930.74231	1188.07825	1674.01050	-926.61725	1063.61853	1704.50232	-896.60461	947.17761	1688.97449	-811.83636	832.73419	1725.83594	-857.78986	832.77911	1725.92615	-819.73987	755.90381	1322.34680	-817.42456	931.53967	1540.07520	-812.19257	937.63330	1380.59314	-1003.61566	944.76941	1526.48547	-997.43121	948.10382	1278.47766	-836.24304	599.52618	1299.19373	-836.87323	465.57156	1295.48718	-881.06683	279.88531	1357.97327	-895.22070	63.88225	1410.94470	-938.91412	35.27031	1351.15088	-746.89728	30.50872	1620.11108	-812.78943	611.12384	1609.12927	-796.26074	453.18933	1609.01770	-940.89197	351.06357	1560.30103	-1085.19763	205.87819	1502.03943	-1139.14099	206.75067	1578.42053	-1024.36682	75.44249	1470.05994	-853.55365	1716.94409	-3101.89282	1973.10400	1023.42206	-3140.64038	2012.54346	1022.07477			 
46	0.450	1377.89929	-847.68903	1678.70178	1489.15649	-824.20233	1688.60291	1396.98804	-944.99683	1602.19104	1515.30823	-922.62799	1611.14709	1425.64990	-946.63300	1434.03040	1429.15491	-984.29712	1141.50720	1427.05432	-804.01318	1366.93896	1420.44751	-763.06561	1209.44958	1497.93616	-1004.25317	1240.18445	1266.68079	-858.07117	1400.35315	1177.81299	-872.21899	1216.26575	1175.61450	-876.39941	1066.34729	1160.44763	-833.86078	959.11084	1196.39368	-766.34052	842.24799	1158.44836	-811.80292	838.53479	1160.03760	-763.47675	769.23785	1577.95984	-868.32886	1391.28455	1672.25085	-926.48669	1188.32556	1672.21301	-922.69293	1063.83728	1702.78967	-893.04749	947.27924	1687.57043	-808.24054	832.73889	1724.12402	-854.46930	832.76331	1724.32251	-816.53772	755.90375	1321.31848	-812.94409	931.45239	1538.64771	-806.73944	938.35040	1379.92175	-998.47247	944.86438	1525.87073	-991.76385	948.50153	1277.91431	-832.79706	599.28802	1298.75928	-834.34296	465.18741	1295.18066	-879.55261	279.81320	1357.94128	-895.21216	63.98546	1410.99133	-938.94977	35.40463	1350.98364	-747.01636	30.59311	1618.77942	-803.44086	612.47864	1607.35571	-784.46222	454.89035	1607.20410	-927.52130	350.90500	1559.18445	-1069.57312	203.08269	1501.52161	-1124.40601	202.56026	1576.83374	-1004.75793	75.05739	1468.95752	-847.82367	1717.18372	-3101.83643	1973.20203	1023.50958	-3140.66528	2012.54382	1022.02277			 
47	0.460	1376.81921	-842.01971	1678.82935	1488.02161	-818.57635	1688.79944	1395.81946	-939.33569	1602.42480	1514.14465	-917.02106	1611.38892	1424.39966	-941.19019	1434.25305	1428.11633	-978.99640	1141.80493	1426.08032	-798.47705	1367.09888	1419.39063	-757.69312	1209.57349	1496.66711	-998.97327	1240.50232	1265.61597	-852.40460	1400.55310	1176.65002	-865.74152	1216.48889	1174.23657	-868.87372	1066.60059	1159.17139	-825.05475	959.70605	1195.09033	-756.12213	843.67230	1157.23975	-801.59937	839.45526	1158.69958	-752.47083	770.74219	1576.91638	-863.11243	1391.42725	1670.80115	-922.15338	1188.58398	1670.57825	-918.75500	1063.99792	1701.17957	-889.44556	947.38556	1686.21985	-804.59229	832.78613	1722.57886	-851.09167	832.84943	1722.80933	-813.20563	755.83972	1319.94653	-807.75281	931.63519	1537.29700	-801.29218	939.04266	1379.35083	-993.46844	944.93231	1525.33716	-986.21545	948.92560	1277.49146	-829.29706	598.98907	1298.36035	-831.71625	464.84464	1294.93347	-877.82410	279.66153	1358.00220	-895.39166	64.28571	1411.01563	-938.94537	35.54979	1351.22839	-746.73425	30.24036	1615.73425	-796.95239	611.94147	1605.60132	-772.95660	456.58044	1605.61414	-914.55231	350.95728	1557.97388	-1053.79211	199.82501	1500.74585	-1109.13074	197.72809	1575.18713	-984.81525	74.24572	1467.80920	-842.22650	1717.31030	-3102.00635	1973.04773	1023.43042	-3140.76270	2012.64221	1022.12506			 
48	0.470	1375.75586	-836.32666	1678.89856	1487.01050	-812.90460	1688.93262	1394.76331	-933.69458	1602.65479	1513.04224	-911.38385	1611.54138	1423.26672	-935.55176	1434.45374	1427.10583	-973.70245	1142.01343	1425.03833	-793.04163	1367.18860	1418.31531	-752.38483	1209.63257	1495.49292	-993.62653	1240.69788	1264.57239	-846.78864	1400.68872	1175.51550	-859.32977	1216.69019	1172.96204	-861.14874	1066.76392	1157.90857	-816.35712	960.29572	1193.85291	-745.99896	845.11639	1156.15747	-791.48810	840.34204	1157.46362	-741.58734	772.28473	1575.83643	-857.81952	1391.54431	1669.49829	-917.80133	1188.84241	1669.09900	-914.80408	1064.24658	1699.64087	-885.82214	947.46716	1684.83313	-801.19507	832.77777	1720.98303	-847.59607	832.83344	1721.24805	-809.78741	755.80402	1318.93359	-802.80786	931.61548	1536.05933	-796.01245	939.66064	1378.72217	-988.39026	944.92767	1524.68945	-980.66974	949.11273	1276.95886	-825.81592	598.72107	1297.98523	-829.05469	464.49991	1294.75671	-876.16571	279.57477	1358.02332	-895.25861	64.35680	1411.09155	-938.91370	35.61587	1350.92896	-746.83643	30.42865	1616.01965	-785.30011	615.05060	1603.67700	-761.76532	458.11298	1603.93250	-901.15448	349.78351	1556.72083	-1037.69519	195.95453	1499.69421	-1093.26086	191.76485	1573.91296	-964.32153	72.86175	1466.80896	-836.48596	1717.43811	-3101.90967	1973.12830	1023.38757	-3140.68555	2012.55933	1022.06799			 
